<?xml version="1.0" encoding="iso-8859-1"?>
<!-- Uploaded to: SVG Repo, www.svgrepo.com, Generator: SVG Repo Mixer Tools -->
<svg width="40" height="40" version="1.1" id="Layer_1" xmlns="http://www.w3.org/2000/svg" xmlns:xlink="http://www.w3.org/1999/xlink"
	 viewBox="0 0 512 512" xml:space="preserve">
<polygon style="fill:#FF3D63;" points="315.178,512 256,452.823 196.823,512 173.744,488.922 256,406.665 338.257,488.922 "/>
<polygon style="fill:#FF0536;" points="256,406.665 256,452.823 315.178,512 338.257,488.922 "/>
<path style="fill:#FF3D63;" d="M256,130.555c-68.989,0-125.115,56.127-125.115,125.115S187.011,380.786,256,380.786
	s125.115-56.127,125.115-125.115S324.989,130.555,256,130.555z"/>
<path style="fill:#FF0536;" d="M256,130.555v250.231c68.989,0,125.115-56.127,125.115-125.115S324.989,130.555,256,130.555z"/>
<path style="fill:#FFE470;" d="M256,0c-32.995,0-59.838,26.843-59.838,59.838s26.843,59.838,59.838,59.838
	s59.838-26.843,59.838-59.838S288.995,0,256,0z"/>
<rect x="207.039" y="348.147" style="fill:#3ACC8F;" width="97.916" height="87.037"/>
<rect x="255.997" y="348.147" style="fill:#00C37A;" width="48.958" height="87.037"/>
<path style="fill:#FFDA2D;" d="M256,0v119.675c32.995,0,59.838-26.843,59.838-59.838S288.995,0,256,0z"/>
<path style="fill:#FFE470;" d="M256,239.351c-26.996,0-48.958,21.963-48.958,48.958s21.963,48.958,48.958,48.958
	s48.958-21.963,48.958-48.958S282.997,239.351,256,239.351z"/>
<path style="fill:#FFDA2D;" d="M256,239.351v97.916c26.996,0,48.958-21.963,48.958-48.958S282.997,239.351,256,239.351z"/>
<path style="fill:#FFB64C;" d="M348.477,255.67c0,50.992-41.485,92.477-92.477,92.477s-92.477-41.485-92.477-92.477
	s41.485-92.477,92.477-92.477S348.477,204.679,348.477,255.67 M381.115,255.67c0-68.989-56.127-125.115-125.115-125.115
	S130.885,186.682,130.885,255.67S187.011,380.786,256,380.786S381.115,324.659,381.115,255.67L381.115,255.67z"/>
<path style="fill:#FF623F;" d="M381.115,255.67h-32.639c0,50.992-41.485,92.477-92.477,92.477s-92.477-41.485-92.477-92.477h-32.639
	c0,68.989,56.127,125.115,125.115,125.115S381.115,324.659,381.115,255.67z"/>
<path style="fill:#FF9800;" d="M256,130.555v32.639c50.992,0,92.476,41.485,92.476,92.477S306.992,348.147,256,348.147v32.639
	c68.989,0,125.115-56.127,125.115-125.115S324.989,130.555,256,130.555z"/>
<path style="fill:#FF4F19;" d="M348.477,255.67c0,50.992-41.485,92.477-92.477,92.477v32.639
	c68.989,0,125.115-56.127,125.115-125.115H348.477z"/>
</svg>